
        <svg xmlns="http://www.w3.org/2000/svg" xmlns:xlink="http://www.w3.org/1999/xlink" version="1.1" width="1045.3124642372131" 
        height="1045.3124642372131" viewBox="0 0 1045.3124642372131 1045.3124642372131">
			
			<g transform="scale(9.375) translate(5, 10)">
				<defs id="SvgjsDefs1283"></defs><g id="SvgjsG1284" featureKey="symbolFeature-0" transform="matrix(1.25,0,0,1.25,-12.5,-16.749999523162842)" fill="#f6ee00"><g xmlns="http://www.w3.org/2000/svg"><polygon points="53,43.5 51,33.3 57.3,32 47.7,17.2 49.7,27.4 43.4,28.6  "></polygon><polygon points="47.7,55.3 49.7,65.5 43.4,66.7 53,81.6 51,71.4 57.3,70.1  "></polygon><polygon points="56.8,48.8 64.7,42.1 68.9,47.1 77.3,31.5 69.3,38.2 65.1,33.2  "></polygon><polygon points="35.5,65.5 43.9,49.9 36,56.6 31.8,51.7 23.4,67.3 31.4,60.6  "></polygon><polygon points="71.7,54.2 54,54.7 63.8,58.2 61.6,64.3 79.3,63.8 69.5,60.2  "></polygon><polygon points="29,44.6 46.7,44.1 36.9,40.5 39.1,34.4 21.4,35 31.2,38.5  "></polygon><polygon points="64.1,23.7 65.4,19.7 67.9,20.5 67.5,13.4 66.2,17.4 63.7,16.5  "></polygon><polygon points="35.5,76.3 34.1,80.3 31.7,79.5 32.1,86.6 33.4,82.6 35.9,83.5  "></polygon><polygon points="90,46.1 85.8,46.8 85.4,44.2 79.3,48.1 83.4,47.3 83.9,49.9  "></polygon><polygon points="16.1,48.9 10,52.7 14.2,51.9 14.6,54.5 20.7,50.7 16.6,51.5  "></polygon><polygon points="73.3,77.6 67,74.2 69.7,77.4 67.7,79.1 74.1,82.5 71.3,79.3  "></polygon><polygon points="26.9,20.7 33.2,24 30.5,20.8 32.5,19.1 26.1,15.7 28.9,19  "></polygon></g></g>
			</g>
		</svg>
	